<svg width="200" height="200" viewBox="0 0 200 200" fill="none" xmlns="http://www.w3.org/2000/svg">
  <!-- Hintergrund -->
  <rect width="200" height="200" rx="40" fill="#1E1E3F"/>
  
  <!-- Äußerer Ring -->
  <circle cx="100" cy="100" r="80" stroke="#14F195" stroke-width="8" stroke-opacity="0.9"/>
  
  <!-- Inneres Sechseck (Solana-Symbol) -->
  <path d="M100 40L150 70V130L100 160L50 130V70L100 40Z" fill="#9945FF" fill-opacity="0.8"/>
  
  <!-- Robotergesicht -->
  <rect x="70" y="85" width="60" height="50" rx="10" fill="#14F195" fill-opacity="0.7"/>
  
  <!-- Roboteraugen -->
  <circle cx="80" cy="105" r="8" fill="#1E1E3F"/>
  <circle cx="120" cy="105" r="8" fill="#1E1E3F"/>
  
  <!-- Robotermund -->
  <rect x="85" y="125" width="30" height="5" rx="2" fill="#1E1E3F"/>
  
  <!-- Roboter-Antennen -->
  <line x1="90" y1="85" x2="80" y2="65" stroke="#14F195" stroke-width="3"/>
  <line x1="110" y1="85" x2="120" y2="65" stroke="#14F195" stroke-width="3"/>
  <circle cx="80" cy="65" r="4" fill="#FAD02C"/>
  <circle cx="120" cy="65" r="4" fill="#FAD02C"/>
  
  <!-- Datenlinien (Trading-Chart) -->
  <polyline points="50,150 70,140 90,155 120,125 150,145" stroke="#FAD02C" stroke-width="4" fill="none"/>
  
  <!-- Subtle glow effect -->
  <defs>
    <filter id="glow" x="-50%" y="-50%" width="200%" height="200%">
      <feGaussianBlur stdDeviation="5" result="blur"/>
      <feComposite in="SourceGraphic" in2="blur" operator="over"/>
    </filter>
  </defs>
  <g filter="url(#glow)">
    <circle cx="100" cy="100" r="90" fill="#9945FF" fill-opacity="0.1"/>
  </g>
</svg> 